<!DOCTYPE svg PUBLIC "-//W3C//DTD SVG 1.1//EN" "http://www.w3.org/Graphics/SVG/1.1/DTD/svg11.dtd">
<!-- Uploaded to: SVG Repo, www.svgrepo.com, Transformed by: SVG Repo Mixer Tools -->
<svg width="800px" height="800px" viewBox="0 0 24 24" xmlns="http://www.w3.org/2000/svg" id="wallet-alt" class="icon glyph" fill="#000000" stroke="#000000">
<g id="SVGRepo_bgCarrier" stroke-width="0"/>
<g id="SVGRepo_tracerCarrier" stroke-linecap="round" stroke-linejoin="round"/>
<g id="SVGRepo_iconCarrier">
<path d="M22,13v2a2,2,0,0,1-2,2H17a2,2,0,0,1-2-2V13a2,2,0,0,1,2-2h3a2,2,0,0,1,2,2Zm-2,5a2.85,2.85,0,0,0,1-.18V20a2,2,0,0,1-2,2H4a2,2,0,0,1-2-2V8A2,2,0,0,1,4,6H5.79l7.93-3.53a2,2,0,0,1,2.6.94L17.62,6H19a2,2,0,0,1,2,2v2.18A2.85,2.85,0,0,0,20,10H17a3,3,0,0,0-3,3v2a3,3,0,0,0,3,3ZM10.71,6h4.67l-.85-1.7Z" style="fill:#ffffff"/>
</g>
</svg>